<?xml version="1.0" encoding="UTF-8" standalone="no"?>
<svg
   xmlns:dc="http://purl.org/dc/elements/1.1/"
   xmlns:cc="http://creativecommons.org/ns#"
   xmlns:rdf="http://www.w3.org/1999/02/22-rdf-syntax-ns#"
   xmlns:svg="http://www.w3.org/2000/svg"
   xmlns="http://www.w3.org/2000/svg"
   xmlns:sodipodi="http://sodipodi.sourceforge.net/DTD/sodipodi-0.dtd"
   xmlns:inkscape="http://www.inkscape.org/namespaces/inkscape"
   viewBox="0 0 448 512"
   version="1.1"
   id="svg4"
   sodipodi:docname="beer.svg"
   inkscape:version="1.0.2 (e86c870879, 2021-01-15)">
  <metadata
     id="metadata10">
    <rdf:RDF>
      <cc:Work
         rdf:about="">
        <dc:format>image/svg+xml</dc:format>
        <dc:type
           rdf:resource="http://purl.org/dc/dcmitype/StillImage" />
      </cc:Work>
    </rdf:RDF>
  </metadata>
  <defs
     id="defs8" />
  <sodipodi:namedview
     pagecolor="#ffffff"
     bordercolor="#666666"
     borderopacity="1"
     objecttolerance="10"
     gridtolerance="10"
     guidetolerance="10"
     inkscape:pageopacity="0"
     inkscape:pageshadow="2"
     inkscape:window-width="1920"
     inkscape:window-height="1031"
     id="namedview6"
     showgrid="false"
     inkscape:zoom="1.6766087"
     inkscape:cx="224"
     inkscape:cy="256"
     inkscape:window-x="-5"
     inkscape:window-y="-5"
     inkscape:window-maximized="1"
     inkscape:current-layer="svg4" />
  <path
     d="M368 96h-48V56c0-13.255-10.745-24-24-24H24C10.745 32 0 42.745 0 56v400c0 13.255 10.745 24 24 24h272c13.255 0 24-10.745 24-24v-42.11l80.606-35.977C429.396 365.063 448 336.388 448 304.86V176c0-44.112-35.888-80-80-80zm16 208.86a16.018 16.018 0 0 1-9.479 14.611L320 343.805V160h48c8.822 0 16 7.178 16 16v128.86zM208 384c-8.836 0-16-7.164-16-16V144c0-8.836 7.164-16 16-16s16 7.164 16 16v224c0 8.836-7.164 16-16 16zm-96 0c-8.836 0-16-7.164-16-16V144c0-8.836 7.164-16 16-16s16 7.164 16 16v224c0 8.836-7.164 16-16 16z"
     id="path2" />
  <path
     style="fill:#f9f9f9;stroke-width:0.596442"
     d="M 20.155713,479.30128 C 12.890071,478.09105 6.070308,472.84351 2.5988243,465.79192 L 0.63243144,461.79761 V 256 50.20239 L 2.6118386,46.181643 C 6.225049,38.842172 12.762919,33.947789 20.66677,32.665355 c 5.32961,-0.864752 273.10504,-0.861978 278.48494,0.0029 2.13228,0.342782 5.29086,1.267544 7.01908,2.055027 4.08871,1.863078 9.00069,6.828483 11.20722,11.329112 l 1.75451,3.578652 0.17494,23.371271 0.17495,23.371271 30.2436,0.240318 c 28.12782,0.223505 30.59827,0.327048 35.31336,1.480089 24.41596,5.970745 43.92981,21.484405 54.57702,43.389135 2.92209,6.01169 4.59021,10.72671 6.43591,18.19149 1.23297,4.98662 1.25685,6.25806 1.45624,77.53746 0.17902,63.99464 0.0912,73.22972 -0.75073,78.98489 -2.50576,17.12773 -10.22422,32.42231 -22.61512,44.81321 -10.4653,10.4653 -12.62716,11.64183 -61.41021,33.42107 l -43.00352,19.19896 -0.29822,24.36938 -0.29822,24.36939 -1.75451,3.57865 c -2.20653,4.50063 -7.11851,9.46604 -11.20722,11.32911 -1.72822,0.78749 -4.8868,1.71225 -7.01908,2.05503 -4.82582,0.77579 -274.332283,0.74635 -278.995997,-0.0305 z m 99.290427,-96.93672 c 3.49086,-1.65424 5.74155,-4.02182 7.57724,-7.9708 l 1.24766,-2.68399 V 256 140.29023 l -1.24766,-2.68399 c -2.95182,-6.35001 -8.17854,-9.72426 -15.0416,-9.71049 -2.23087,0.005 -4.94677,0.41201 -6.16056,0.92442 -2.938,1.2403 -6.878292,4.89714 -8.459251,7.85073 l -1.298801,2.42645 V 256 372.90265 l 1.298801,2.42645 c 1.307902,2.44345 4.964401,6.13832 7.324591,7.40146 3.87097,2.07168 9.93263,1.92136 14.75958,-0.366 z m 95.30901,0.40762 c 3.5324,-1.52865 5.98181,-3.8539 7.70737,-7.31664 L 224,372.37021 V 256 139.62979 l -1.53748,-3.08533 c -2.78331,-5.58536 -7.96059,-8.66227 -14.55254,-8.64871 -2.14169,0.004 -4.86667,0.41998 -6.06158,0.92442 -2.938,1.2403 -6.87829,4.89714 -8.45925,7.85073 l -1.2988,2.42645 V 256 372.90265 l 1.2988,2.42645 c 1.3079,2.44345 4.96439,6.13832 7.32459,7.40146 3.55061,1.90023 9.70443,1.91847 14.04141,0.0416 z m 131.90373,-50.45852 c 14.38438,-6.41384 27.22702,-12.20847 28.53919,-12.87694 3.31835,-1.6905 5.50913,-3.884 7.36204,-7.37116 l 1.5846,-2.98221 v -68.59084 -68.59085 l -1.37167,-2.78449 c -0.75442,-1.53147 -2.54063,-3.86199 -3.96935,-5.17894 -4.49967,-4.14766 -5.42811,-4.26363 -34.13242,-4.26363 h -25.24053 v 92.15031 c 0,54.28091 0.22082,92.1503 0.53736,92.1503 0.29554,0 12.30639,-5.24769 26.69078,-11.66155 z"
     id="path12" />
</svg>
