<?xml version="1.0" encoding="UTF-8" standalone="no"?>
<svg
   xmlns:dc="http://purl.org/dc/elements/1.1/"
   xmlns:cc="http://creativecommons.org/ns#"
   xmlns:rdf="http://www.w3.org/1999/02/22-rdf-syntax-ns#"
   xmlns:svg="http://www.w3.org/2000/svg"
   xmlns="http://www.w3.org/2000/svg"
   xmlns:sodipodi="http://sodipodi.sourceforge.net/DTD/sodipodi-0.dtd"
   xmlns:inkscape="http://www.inkscape.org/namespaces/inkscape"
   xml:space="preserve"
   width="6.82666in"
   height="6.82666in"
   style="shape-rendering:geometricPrecision; text-rendering:geometricPrecision; image-rendering:optimizeQuality; fill-rule:evenodd; clip-rule:evenodd"
   viewBox="0 0 6.82666 6.82666"
   version="1.1"
   id="svg17"
   sodipodi:docname="belt.svg"
   inkscape:version="1.0.2 (e86c870879, 2021-01-15)"><metadata
   id="metadata21"><rdf:RDF><cc:Work
       rdf:about=""><dc:format>image/svg+xml</dc:format><dc:type
         rdf:resource="http://purl.org/dc/dcmitype/StillImage" /></cc:Work></rdf:RDF></metadata><sodipodi:namedview
   pagecolor="#ffffff"
   bordercolor="#666666"
   borderopacity="1"
   objecttolerance="10"
   gridtolerance="10"
   guidetolerance="10"
   inkscape:pageopacity="0"
   inkscape:pageshadow="2"
   inkscape:window-width="1920"
   inkscape:window-height="1031"
   id="namedview19"
   showgrid="false"
   inkscape:zoom="1.3098518"
   inkscape:cx="327.67969"
   inkscape:cy="327.67969"
   inkscape:window-x="-5"
   inkscape:window-y="-5"
   inkscape:window-maximized="1"
   inkscape:current-layer="svg17" />
 <defs
   id="defs4">
  <style
   type="text/css"
   id="style2">
   <![CDATA[
    .fil1 {fill:none}
    .fil0 {fill:black;fill-rule:nonzero}
   ]]>
  </style>
 </defs>
 <g
   id="Layer_x0020_1">
  <metadata
   id="CorelCorpID_0Corel-Layer" />
  <g
   id="_294286888">
   <path
   id="_294287560"
   class="fil0"
   d="M2.21769 3.49997c0.0208268,-0.0208268 0.0545984,-0.0208268 0.0754252,0l1.03357 1.03357c0.0208268,0.0208268 0.0208268,0.0545984 0,0.0754252l-0.379087 0.379091c-0.0208268,0.0208268 -0.0545984,0.0208268 -0.0754252,0l-1.03357 -1.03357c-0.0208268,-0.0208268 -0.0208268,-0.0545984 0,-0.0754252l0.379091 -0.379087zm0.0377126 0.11313l-0.303673 0.303669 0.958157 0.958157 0.303669 -0.303673 -0.958154 -0.958154z" />
   <path
   id="_294288064"
   class="fil0"
   d="M2.79959 4.84005c0.0208228,-0.0208228 0.0208228,-0.0545945 0,-0.0754173 -0.0208228,-0.0208228 -0.0545945,-0.0208228 -0.0754173,0l-1.07995 1.07994 -0.662142 -0.662142 1.06979 -1.0698c0.0208228,-0.0208228 0.0208228,-0.0545945 0,-0.0754173 -0.0208228,-0.0208228 -0.0545945,-0.0208228 -0.0754173,0l-1.1075 1.1075c-0.0208268,0.0208268 -0.0208268,0.0545984 0,0.0754252l0.737559 0.737559c0.0208268,0.0208268 0.0545984,0.0208268 0.0754252,0l1.11765 -1.11766z" />
   <path
   id="_294287512"
   class="fil0"
   d="M2.37184 3.65411c0.0645433,-0.0645433 0.188921,-0.185972 0.334642,-0.259126 0.156276,-0.0784528 0.333063,-0.10089 0.485602,0.0516496l0.187937 0.187937c0.152531,0.152531 0.130098,0.329323 0.0516457,0.485602 -0.0731457,0.145717 -0.194579,0.270098 -0.259122,0.334642l-0.0754173 -0.0754173c0.0606024,-0.0606024 0.174469,-0.177094 0.239539,-0.30672 0.0597717,-0.119067 0.0785,-0.252126 -0.032063,-0.362689l-0.187937 -0.187937c-0.110567,-0.110567 -0.243626,-0.0918386 -0.362689,-0.0320669 -0.12963,0.0650748 -0.246118,0.178941 -0.30672,0.239543l-0.0754173 -0.0754173z" />
   <path
   id="_294287992"
   class="fil0"
   d="M3.0212 2.9069l0.407425 -0.543976c0.00412992,-0.00551181 0.00912205,-0.00999606 0.0146535,-0.0134055l0.546642 -0.410697c0.0217638,-0.0163425 0.0519685,-0.0135157 0.0703858,0.00559449l0.822591 0.822583c0.0199882,0.0199882 0.0207874,0.0518937 0.00241339,0.0728425l-0.399067 0.535646c-0.00375984,0.00504331 -0.00824409,0.00922835 -0.0131969,0.0125276l-0.556795 0.420331c-0.0217638,0.0164252 -0.0520472,0.0136339 -0.0705,-0.00552362l-0.822583 -0.822575c-0.0201457,-0.0201457 -0.0207992,-0.0524094 -0.0019685,-0.0733465zm0.488063 -0.474063l-0.378126 0.504535 0.757945 0.757945 0.516488 -0.389807 0.369413 -0.495583 -0.758173 -0.758173 -0.507547 0.381083z" />
   <path
   id="_294286576"
   class="fil0"
   d="M4.04192 1.97176c-0.0208228,0.0208228 -0.0208228,0.0545945 0,0.0754173 0.0208228,0.0208228 0.0545945,0.0208228 0.0754173,0l1.0651 -1.06511 0.662146 0.662142 -1.07213 1.07214c-0.0208228,0.0208228 -0.0208228,0.0545945 0,0.0754173 0.0208228,0.0208228 0.0545945,0.0208228 0.0754173,0l1.10952 -1.10953c0.0211772,-0.0206693 0.0212047,-0.0548661 0.000326772,-0.0757441l-0.737244 -0.737232c-0.0206693,-0.0211772 -0.0548661,-0.0212047 -0.0757441,-0.000326772l-1.10281 1.10282z" />
   <path
   id="_294286864"
   class="fil0"
   d="M3.83755 2.37753c0.0208268,-0.0208268 0.0545984,-0.0208268 0.0754252,0l0.536157 0.536157c0.0208268,0.0208268 0.0208268,0.0545984 0,0.0754252l-0.380598 0.380598c-0.0208268,0.0208268 -0.0545984,0.0208268 -0.0754252,0l-0.536157 -0.536157c-0.0208268,-0.0208268 -0.0208268,-0.0545984 0,-0.0754252l0.380598 -0.380598zm0.0377126 0.11313l-0.305181 0.305181 0.46074 0.46074 0.305181 -0.305181 -0.46074 -0.46074z" />
  </g>
 </g>
 <rect
   class="fil1"
   width="6.82666"
   height="6.82666"
   id="rect15" />
<path
   style="fill:#f9f9f9;stroke-width:0.763445"
   d="m 126.51262,528.84822 -31.296292,-31.30327 49.619412,-49.62382 49.61941,-49.62381 31.30198,31.30199 31.30199,31.30198 -49.6251,49.62511 -49.62511,49.6251 z"
   id="path23"
   transform="scale(0.01041667)" /><path
   style="fill:#f9f9f9;stroke-width:0.763445"
   d="m 126.45382,528.79173 -31.357008,-31.357 49.680848,-49.55743 49.68085,-49.55743 31.49274,31.47854 31.49275,31.47855 -49.43151,49.43589 c -27.18733,27.18974 -49.60479,49.43589 -49.81658,49.43589 -0.2118,0 -14.49574,-14.11065 -31.74209,-31.35701 z"
   id="path29"
   transform="scale(0.01041667)" /><path
   style="fill:#f9f9f9;stroke-width:0.763445"
   d="m 233.58,421.38753 -45.61615,-45.62091 14.1291,-14.11361 14.1291,-14.11362 45.80146,45.79668 45.80145,45.79669 -13.92256,13.93783 c -7.65741,7.66582 -14.09889,13.93784 -14.31441,13.93784 -0.21551,0 -20.91911,-20.52941 -46.00799,-45.6209 z"
   id="path31"
   transform="scale(0.01041667)" /><path
   style="fill:#f9f9f9;stroke-width:0.763445"
   d="m 269.81302,385.09328 -30.75906,-30.7661 6.17524,-5.27239 c 14.53606,-12.41081 25.71088,-17.9396 36.25963,-17.9396 8.7879,0 12.10673,2.09544 26.88077,16.97194 14.57754,14.67863 15.81847,16.73412 15.79493,26.16271 -0.0191,7.63552 -2.70881,14.91244 -8.94447,24.1987 -3.94241,5.8711 -12.88156,16.77748 -14.1132,17.21909 -0.29413,0.10545 -14.37636,-13.653 -31.29384,-30.57435 z"
   id="path33"
   transform="scale(0.01041667)" /><path
   style="fill:#f9f9f9;stroke-width:0.763445"
   d="m 337.10527,317.94576 -35.99338,-36.07278 18.11438,-24.04853 18.11437,-24.04852 24.07062,-18.05379 24.07061,-18.05378 36.10863,36.11463 36.10863,36.11464 -17.53113,23.52261 -17.53114,23.52261 -24.38437,18.4981 c -13.4114,10.17396 -24.5575,18.51599 -24.76911,18.53785 -0.2116,0.0219 -16.58175,-16.19301 -36.37811,-36.03304 z m 72.1944,-12.35557 c 18.29345,-18.25331 19.46016,-19.5835 19.46016,-22.18705 0,-2.62341 -1.42967,-4.19762 -27.08628,-29.82477 -25.13001,-25.10114 -27.27649,-27.05517 -29.71983,-27.05517 -2.42535,0 -4.18903,1.55548 -22.30862,19.67508 -16.90187,16.90186 -19.67508,19.99503 -19.67508,21.94512 0,1.96633 3.65123,5.92234 27.28919,29.56714 25.37828,25.38562 27.47444,27.29709 29.93475,27.29709 2.43902,0 4.1648,-1.51592 22.10571,-19.41744 z"
   id="path37"
   transform="scale(0.01041667)" /><path
   style="fill:#f9f9f9;stroke-width:0.763445"
   d="m 429.60035,225.76049 -31.29629,-31.30327 49.61941,-49.62382 49.61941,-49.623811 31.30198,31.301991 31.302,31.30198 -49.62511,49.62511 -49.6251,49.6251 z"
   id="path39"
   transform="scale(0.01041667)" /><path
   style="fill:#f9f9f9;stroke-width:0.763445"
   d="m 330.88908,326.34366 c -21.97759,-21.93951 -40.43084,-40.77861 -41.00723,-41.86467 -0.85867,-1.61793 -0.87222,-2.31346 -0.075,-3.85008 0.53514,-1.0315 9.80111,-13.63583 20.59105,-28.00965 l 19.61806,-26.13422 27.47759,-20.59394 c 15.11267,-11.32667 27.90904,-20.59394 28.43636,-20.59394 0.52732,0 1.76082,0.56178 2.74111,1.2484 1.77479,1.24311 2.00591,1.02485 54.56738,-51.53255 34.2028,-34.20014 53.31538,-52.780944 54.29152,-52.780944 0.96949,0 14.64345,13.126632 38.36108,36.825594 29.07035,29.04747 36.8546,37.23053 36.8546,38.74278 0,1.51969 -10.88117,12.79921 -52.48162,54.40294 -48.2183,48.22209 -52.40452,52.6092 -51.53255,54.00544 0.52199,0.83584 0.94907,2.24279 0.94907,3.12657 0,1.34318 -34.08855,48.26123 -39.24758,54.0187 -3.35291,3.74186 -56.16817,42.87958 -57.86479,42.87958 -1.25231,0 -12.58178,-10.84316 -41.67904,-39.89001 z m 68.14722,9.63715 24.19599,-18.22591 17.88854,-24.03701 17.88854,-24.03701 -36.46306,-36.47247 c -20.05469,-20.05986 -36.86842,-36.31782 -37.36386,-36.12879 -0.49543,0.18902 -11.66081,8.42104 -24.81196,18.2934 l -23.91118,17.94972 -17.55924,23.42533 c -9.65758,12.88393 -17.8078,23.84685 -18.11159,24.36203 -0.73966,1.25436 71.06762,73.53155 72.8023,73.27873 0.68725,-0.10015 12.13774,-8.38377 25.44552,-18.40802 z m 130.57206,-210.23268 -32.06542,-32.065426 -50.38295,50.387276 -50.38293,50.38729 32.05984,32.06666 32.05984,32.06666 50.38852,-50.38852 50.38852,-50.38852 z"
   id="path41"
   transform="scale(0.01041667)" /><path
   style="fill:#f9f9f9;stroke-width:0.763445"
   d="m 357.68058,297.26963 c -20.27245,-20.2931 -26.94711,-27.42331 -26.94711,-28.78628 0,-2.71672 38.50244,-41.1967 41.22074,-41.1967 1.53647,0 7.64325,5.70897 29.22132,27.31776 16.94062,16.96475 27.27892,27.87432 27.27892,28.78629 0,0.90065 -7.59427,9.0834 -19.63918,21.161 -16.89944,16.94531 -19.95643,19.69248 -21.91338,19.69248 -1.97195,0 -5.85559,-3.58503 -29.22131,-26.97455 z m 44.23681,1.21582 c 7.87706,-7.86889 14.32194,-14.65623 14.32194,-15.08298 0,-0.42676 -9.96353,-10.735 -22.14117,-22.90722 l -22.14117,-22.13129 -15.07311,15.0731 -15.0731,15.07311 22.13129,22.14117 c 12.17222,12.17764 22.47377,22.14117 22.89234,22.14117 0.41857,0 7.20591,-6.43818 15.08298,-14.30706 z"
   id="path43"
   transform="scale(0.01041667)" /><path
   style="fill:#f9f9f9;stroke-width:0.763445"
   d="m 119.46839,536.30171 c -29.112598,-29.08968 -36.854601,-37.2292 -36.854601,-38.74692 0,-1.52521 10.782308,-12.70279 52.295991,-54.21316 28.7628,-28.7605 52.296,-52.6449 52.296,-53.07646 0,-0.43155 -2.57663,-3.34407 -5.72584,-6.47226 -4.60606,-4.57531 -5.72584,-6.13854 -5.72584,-7.99332 0,-1.99666 2.58962,-4.88985 19.32146,-21.58643 14.6039,-14.57313 19.77292,-19.28074 21.1705,-19.28074 1.29803,0 3.78733,1.92432 8.35343,6.45752 l 6.50438,6.45752 6.48929,-5.69243 c 25.06596,-21.98798 47.02309,-27.27559 63.33361,-15.25172 1.90731,1.40605 8.99514,8.16806 15.75075,15.0267 15.1441,15.3751 17.25676,18.94434 17.72871,29.95183 0.64118,14.95433 -5.58105,27.9287 -23.08003,48.1257 l -3.75666,4.33586 6.15052,6.25448 c 3.38278,3.43996 6.31445,6.76979 6.51482,7.39963 0.20037,0.62985 -0.076,2.00405 -0.61417,3.05378 -0.53816,1.04974 -9.36667,10.23971 -19.61892,20.42216 -13.43726,13.34579 -19.12783,18.51355 -20.38652,18.51355 -1.15589,0 -3.91618,-2.11818 -8.16637,-6.26669 l -6.42029,-6.26668 -52.85718,52.83684 c -33.98567,33.9726 -53.39116,52.83684 -54.35281,52.83684 -0.95518,0 -14.81317,-13.30705 -38.35023,-36.8256 z m 107.05224,-107.46585 -32.06542,-32.06542 -50.38295,50.38728 -50.382939,50.38728 32.059849,32.06666 32.05984,32.06666 50.38852,-50.38852 50.38852,-50.38852 z m 36.26622,-36.26333 -46.18366,-46.18839 -14.88718,14.88718 -14.88718,14.88719 46.18366,46.18838 46.18365,46.18838 14.88718,-14.88718 14.88718,-14.88718 z m 49.31649,11.8334 c 9.50608,-12.5791 13.87505,-23.54067 13.0223,-32.67245 -0.74865,-8.01723 -3.53245,-12.12608 -17.58086,-25.94913 -10.66332,-10.49228 -12.92802,-12.35696 -16.74001,-13.78321 -5.67919,-2.12486 -13.17133,-2.17669 -19.77565,-0.13683 -8.27571,2.55611 -22.15146,11.72748 -29.98056,19.81606 l -3.03388,3.13444 31.26528,31.27226 31.26528,31.27225 3.32706,-3.23205 c 1.82989,-1.77764 5.53385,-6.15224 8.23104,-9.72134 z"
   id="path45"
   transform="scale(0.01041667)" /></svg>
