<?xml version="1.0" encoding="UTF-8" standalone="no"?>
<svg
   xmlns:dc="http://purl.org/dc/elements/1.1/"
   xmlns:cc="http://creativecommons.org/ns#"
   xmlns:rdf="http://www.w3.org/1999/02/22-rdf-syntax-ns#"
   xmlns:svg="http://www.w3.org/2000/svg"
   xmlns="http://www.w3.org/2000/svg"
   xmlns:sodipodi="http://sodipodi.sourceforge.net/DTD/sodipodi-0.dtd"
   xmlns:inkscape="http://www.inkscape.org/namespaces/inkscape"
   version="1.1"
   x="0px"
   y="0px"
   viewBox="0 0 1000 1000"
   enable-background="new 0 0 1000 1000"
   xml:space="preserve"
   id="svg10"
   sodipodi:docname="drug.svg"
   inkscape:version="1.0.2 (e86c870879, 2021-01-15)"><defs
   id="defs14" /><sodipodi:namedview
   pagecolor="#ffffff"
   bordercolor="#666666"
   borderopacity="1"
   objecttolerance="10"
   gridtolerance="10"
   guidetolerance="10"
   inkscape:pageopacity="0"
   inkscape:pageshadow="2"
   inkscape:window-width="1920"
   inkscape:window-height="1031"
   id="namedview12"
   showgrid="false"
   inkscape:zoom="0.85842363"
   inkscape:cx="500"
   inkscape:cy="500"
   inkscape:window-x="-5"
   inkscape:window-y="-5"
   inkscape:window-maximized="1"
   inkscape:current-layer="svg10" />
<metadata
   id="metadata2"> Svg Vector Icons : http://www.onlinewebfonts.com/icon <rdf:RDF><cc:Work
     rdf:about=""><dc:format>image/svg+xml</dc:format><dc:type
       rdf:resource="http://purl.org/dc/dcmitype/StillImage" /></cc:Work></rdf:RDF></metadata>
<g
   id="g8"><g
     transform="translate(0.000000,512.000000) scale(0.100000,-0.100000)"
     id="g6"><path
       d="M2275,5008.2c-876-120.8-1621.6-686.2-1970.4-1497C-46.3,2696.6,59.2,1747.8,582.4,1034.8c159.1-216.6,5117.8-5175.3,5334.4-5334.4c818.5-600,1947.5-644,2798.5-109.3c580.8,364.2,977.5,920,1134.7,1587.1c42.2,184,49.8,256.8,49.8,538.6c1.9,356.5-23,515.6-122.7,818.5c-70.9,212.8-166.8,402.5-312.4,619.1C9365.1-698,8983.7-307,6779.4,1897.3c-2371,2373-2585.7,2580-2764,2696.9c-297.1,197.4-586.5,318.2-918.1,387.2C2915.2,5019.7,2460.9,5035.1,2275,5008.2z M3116.4,4504.1c254.9-67.1,571.2-224.3,766.7-383.3c84.3-67.1,695.8-667.1,1360.9-1332.2l1207.6-1209.5l-1452.9-1451l-1451-1452.9L2319-98.1C1629,592,1040.6,1195.8,975.4,1282c-149.5,195.5-289.4,483-354.6,728.4c-46,170.6-51.7,226.2-51.7,507.9c0,281.8,5.7,337.4,51.7,504.1c214.7,797.4,826.1,1362.8,1646.5,1520C2485.8,4582.7,2878.7,4565.4,3116.4,4504.1z"
       id="path4" /></g></g>
<path
   style="fill:#f9f9f9;stroke-width:1.16493"
   d="M 717.9068,988.63968 C 676.51564,984.64507 635.05001,970.09224 601.5665,947.80873 595.58062,943.82508 583.44649,933.68197 574.23288,924.96008 521.77633,875.30313 125.28247,478.80336 75.439982,426.15975 53.481851,402.96757 40.237147,382.47504 29.050146,354.38425 8.1768595,301.97099 5.0960624,245.90679 20.144262,192.31537 43.887754,107.75725 111.74614,40.77662 196.44179,18.298257 c 24.52444,-6.508826 32.74025,-7.504128 61.2536,-7.420553 30.49584,0.08939 43.78268,1.497562 64.6534,6.85215 18.85331,4.837003 32.77986,10.136484 50.85617,19.352336 20.7182,10.562769 35.70206,21.042677 53.98717,37.759326 19.38593,17.723041 418.103,415.612674 466.83538,465.866574 43.25205,44.60247 49.93272,52.34933 60.68391,70.3687 10.70269,17.93806 17.59701,33.2033 23.89978,52.91831 9.15199,28.62733 11.16175,45.12245 10.32188,84.7166 -0.61808,29.13751 -1.66165,36.48936 -8.46716,59.65014 -27.70066,94.27184 -107.84532,164.34462 -204.25828,178.58891 -15.22335,2.24913 -43.89095,3.07962 -58.30084,1.68893 z M 500.58154,499.41846 646.19289,353.80362 575.13506,282.62966 C 462.40989,169.72023 393.45377,102.6147 380.94621,93.652297 368.0211,84.390695 339.46103,69.883179 324.21553,64.835102 c -19.77197,-6.546879 -30.71735,-8.165283 -60.11304,-8.888425 -24.33598,-0.598673 -28.00419,-0.42706 -39.99633,1.871177 -35.07433,6.721831 -69.18068,22.981784 -96.76467,46.131856 -32.110407,26.9489 -55.639547,65.64519 -67.276341,110.64342 -3.26048,12.60793 -3.313553,13.33922 -3.297243,45.43212 0.01605,31.58232 0.116763,33.01471 3.172071,45.11527 4.167283,16.50456 10.16324,32.38542 18.152567,48.07881 11.328946,22.25338 17.69662,30.4505 49.304076,63.46928 31.52246,32.92997 225.66862,228.34468 226.86238,228.34468 0.39117,0 66.23632,-65.52668 146.32254,-145.61483 z"
   id="path16" /></svg>
