<?xml version="1.0" encoding="UTF-8" standalone="no"?>
<svg
   xmlns:dc="http://purl.org/dc/elements/1.1/"
   xmlns:cc="http://creativecommons.org/ns#"
   xmlns:rdf="http://www.w3.org/1999/02/22-rdf-syntax-ns#"
   xmlns:svg="http://www.w3.org/2000/svg"
   xmlns="http://www.w3.org/2000/svg"
   xmlns:sodipodi="http://sodipodi.sourceforge.net/DTD/sodipodi-0.dtd"
   xmlns:inkscape="http://www.inkscape.org/namespaces/inkscape"
   viewBox="0 0 24 24"
   width="24"
   height="24"
   version="1.1"
   id="svg6"
   sodipodi:docname="gigadev.svg"
   inkscape:version="1.0.2 (e86c870879, 2021-01-15)">
  <metadata
     id="metadata12">
    <rdf:RDF>
      <cc:Work
         rdf:about="">
        <dc:format>image/svg+xml</dc:format>
        <dc:type
           rdf:resource="http://purl.org/dc/dcmitype/StillImage" />
      </cc:Work>
    </rdf:RDF>
  </metadata>
  <defs
     id="defs10" />
  <sodipodi:namedview
     pagecolor="#ffffff"
     bordercolor="#666666"
     borderopacity="1"
     objecttolerance="10"
     gridtolerance="10"
     guidetolerance="10"
     inkscape:pageopacity="0"
     inkscape:pageshadow="2"
     inkscape:window-width="1920"
     inkscape:window-height="1031"
     id="namedview8"
     showgrid="false"
     inkscape:zoom="35.767651"
     inkscape:cx="12"
     inkscape:cy="12"
     inkscape:window-x="-5"
     inkscape:window-y="-5"
     inkscape:window-maximized="1"
     inkscape:current-layer="svg6" />
  <path
     fill="none"
     d="M0 0h24v24H0z"
     id="path2" />
  <path
     d="M11 12l-7.071 7.071-1.414-1.414L8.172 12 2.515 6.343 3.929 4.93 11 12zm0 7h10v2H11v-2z"
     fill="#000"
     id="path4" />
  <path
     style="fill:#f9f9f9;stroke-width:0.0279582"
     d="M 3.2210194,18.346418 2.5363726,17.661343 5.3670101,14.830706 8.1976475,12.000069 5.3669556,9.1692737 2.5362635,6.3384787 3.2281829,5.6465593 3.9201023,4.9546398 7.4428241,8.4772784 10.965546,11.999917 7.4498408,15.515705 C 5.516203,17.449389 3.92773,19.031493 3.919901,19.031493 c -0.00783,0 -0.3223258,-0.308283 -0.6988816,-0.685075 z"
     id="path14" />
  <path
     style="fill:#f9f9f9;stroke-width:0.0279582"
     d="m 11.021462,19.996052 v -0.992517 h 4.976564 4.976564 v 0.992517 0.992517 h -4.976564 -4.976564 z"
     id="path16" />
</svg>
