<?xml version="1.0" encoding="UTF-8" standalone="no"?>
<svg
   xmlns:dc="http://purl.org/dc/elements/1.1/"
   xmlns:cc="http://creativecommons.org/ns#"
   xmlns:rdf="http://www.w3.org/1999/02/22-rdf-syntax-ns#"
   xmlns:svg="http://www.w3.org/2000/svg"
   xmlns="http://www.w3.org/2000/svg"
   xmlns:sodipodi="http://sodipodi.sourceforge.net/DTD/sodipodi-0.dtd"
   xmlns:inkscape="http://www.inkscape.org/namespaces/inkscape"
   version="1.1"
   id="Layer_1_1_"
   x="0px"
   y="0px"
   viewBox="0 0 16 16"
   style="enable-background:new 0 0 16 16;"
   xml:space="preserve"
   sodipodi:docname="microphone.svg"
   inkscape:version="1.0.2 (e86c870879, 2021-01-15)"><metadata
   id="metadata11"><rdf:RDF><cc:Work
       rdf:about=""><dc:format>image/svg+xml</dc:format><dc:type
         rdf:resource="http://purl.org/dc/dcmitype/StillImage" /></cc:Work></rdf:RDF></metadata><defs
   id="defs9" /><sodipodi:namedview
   pagecolor="#ffffff"
   bordercolor="#666666"
   borderopacity="1"
   objecttolerance="10"
   gridtolerance="10"
   guidetolerance="10"
   inkscape:pageopacity="0"
   inkscape:pageshadow="2"
   inkscape:window-width="1920"
   inkscape:window-height="1031"
   id="namedview7"
   showgrid="false"
   inkscape:zoom="53.651477"
   inkscape:cx="8"
   inkscape:cy="8"
   inkscape:window-x="-5"
   inkscape:window-y="-5"
   inkscape:window-maximized="1"
   inkscape:current-layer="Layer_1_1_" />
<path
   d="M8,11c1.657,0,3-1.343,3-3V3c0-1.657-1.343-3-3-3S5,1.343,5,3v5C5,9.657,6.343,11,8,11z"
   id="path2" />
<path
   d="M13,8V6h-1l0,1.844c0,1.92-1.282,3.688-3.164,4.071C6.266,12.438,4,10.479,4,8V6H3v2c0,2.414,1.721,4.434,4,4.899V15H5v1h6  v-1H9v-2.101C11.279,12.434,13,10.414,13,8z"
   id="path4" />
<path
   style="fill:#f9f9f9;stroke-width:0.0186388"
   d="M 7.6645013,10.971092 C 6.3532134,10.824748 5.2758735,9.8028495 5.0536826,8.4946307 5.0179476,8.2842296 5.0170359,8.1942111 5.022521,5.4176773 L 5.028171,2.5574658 5.077306,2.3617582 C 5.3797639,1.1570639 6.2308651,0.32393656 7.4221967,0.06638862 7.5898577,0.03014284 7.6726618,0.02407959 8,0.02407959 c 0.3273382,0 0.4101423,0.0060632 0.5778033,0.04230903 0.670424,0.14493557 1.2497153,0.4817376 1.6735327,0.97299808 0.330149,0.3826854 0.538439,0.7929549 0.671357,1.3223715 l 0.04914,0.1957076 0.0057,2.8602115 c 0.0055,2.7765338 0.0046,2.8665523 -0.03116,3.0769534 -0.265172,1.5612863 -1.7103782,2.6518403 -3.2818157,2.4764613 z"
   id="path15" /><path
   style="fill:#f9f9f9;stroke-width:0.0186388"
   d="M 5.0177895,15.502123 V 15.017514 H 6.0149661 7.0121428 V 13.95582 12.894126 l -0.079215,-0.01953 C 6.4775549,12.762328 6.1854494,12.658042 5.8099391,12.473675 5.3316248,12.238833 4.9451881,11.96957 4.5643053,11.605738 3.7326363,10.811299 3.2195078,9.807756 3.049427,8.6430391 3.0234653,8.4652528 3.0167298,8.222844 3.0099375,7.2218294 l -0.00819,-1.2068633 h 0.4954531 0.4954531 l 1.528e-4,1.1136693 c 1.89e-4,1.3761021 0.018614,1.5680912 0.2046558,2.1324775 0.4835505,1.4669271 1.7685512,2.5202451 3.3179276,2.7197131 0.400043,0.0515 1.0063594,0.01774 1.4258694,-0.07941 1.4168487,-0.328087 2.5611817,-1.49721 2.9338827,-2.9974384 0.116361,-0.468389 0.117472,-0.4836387 0.126588,-1.7380696 l 0.0084,-1.1509469 h 0.494078 0.494079 l -0.0082,1.2068633 c -0.0068,1.0010146 -0.01353,1.2434234 -0.03949,1.4212097 -0.112815,0.7725603 -0.3711,1.4631789 -0.7785,2.0816029 -0.211133,0.320496 -0.358062,0.498891 -0.657958,0.798867 -0.422381,0.422493 -0.800096,0.693619 -1.324054,0.950411 -0.3732267,0.182919 -0.696398,0.298353 -1.1229887,0.401122 l -0.079215,0.01908 v 1.061694 1.061694 h 0.9971767 0.997177 v 0.484609 0.48461 H 8 5.0177895 Z"
   id="path17" /></svg>
